<svg xmlns="http://www.w3.org/2000/svg" viewBox="0 0 1000 520" role="img" aria-label="Language distribution chart">
<rect x="0" y="0" width="100%" height="100%" fill="#ffffff"/>
<text x="220" y="24" font-size="20" fill="#0f172a" font-family="Inter, Arial, sans-serif">Top languages by rows (train split, partial stats)</text>
<text x="210" y="58.9" text-anchor="end" font-size="16" fill="#0f172a" font-family="Inter, Arial, sans-serif">KiCad</text>
<rect x="220" y="40" width="740" height="27" fill="#2563eb" rx="6"/>
<text x="968" y="58.9" font-size="14" fill="#475569" font-family="Inter, Arial, sans-serif">750,311</text>
<text x="210" y="93.9" text-anchor="end" font-size="16" fill="#0f172a" font-family="Inter, Arial, sans-serif">Eagle</text>
<rect x="220" y="75" width="368" height="27" fill="#2563eb" rx="6"/>
<text x="596" y="93.9" font-size="14" fill="#475569" font-family="Inter, Arial, sans-serif">373,771</text>
<text x="210" y="128.9" text-anchor="end" font-size="16" fill="#0f172a" font-family="Inter, Arial, sans-serif">PostScript</text>
<rect x="220" y="110" width="298" height="27" fill="#2563eb" rx="6"/>
<text x="526" y="128.9" font-size="14" fill="#475569" font-family="Inter, Arial, sans-serif">302,345</text>
<text x="210" y="163.9" text-anchor="end" font-size="16" fill="#0f172a" font-family="Inter, Arial, sans-serif">SMT</text>
<rect x="220" y="145" width="263" height="27" fill="#2563eb" rx="6"/>
<text x="491" y="163.9" font-size="14" fill="#475569" font-family="Inter, Arial, sans-serif">266,828</text>
<text x="210" y="198.9" text-anchor="end" font-size="16" fill="#0f172a" font-family="Inter, Arial, sans-serif">G-code</text>
<rect x="220" y="180" width="233" height="27" fill="#2563eb" rx="6"/>
<text x="461" y="198.9" font-size="14" fill="#475569" font-family="Inter, Arial, sans-serif">236,656</text>
<text x="210" y="233.9" text-anchor="end" font-size="16" fill="#0f172a" font-family="Inter, Arial, sans-serif">Gnuplot</text>
<rect x="220" y="215" width="220" height="27" fill="#2563eb" rx="6"/>
<text x="448" y="233.9" font-size="14" fill="#475569" font-family="Inter, Arial, sans-serif">223,506</text>
<text x="210" y="268.9" text-anchor="end" font-size="16" fill="#0f172a" font-family="Inter, Arial, sans-serif">Gettext-Catalog</text>
<rect x="220" y="250" width="204" height="27" fill="#2563eb" rx="6"/>
<text x="432" y="268.9" font-size="14" fill="#475569" font-family="Inter, Arial, sans-serif">207,691</text>
<text x="210" y="303.9" text-anchor="end" font-size="16" fill="#0f172a" font-family="Inter, Arial, sans-serif">Web-Ontology-Language</text>
<rect x="220" y="285" width="204" height="27" fill="#2563eb" rx="6"/>
<text x="432" y="303.9" font-size="14" fill="#475569" font-family="Inter, Arial, sans-serif">207,017</text>
<text x="210" y="338.9" text-anchor="end" font-size="16" fill="#0f172a" font-family="Inter, Arial, sans-serif">Max</text>
<rect x="220" y="320" width="151" height="27" fill="#2563eb" rx="6"/>
<text x="379" y="338.9" font-size="14" fill="#475569" font-family="Inter, Arial, sans-serif">153,867</text>
<text x="210" y="373.9" text-anchor="end" font-size="16" fill="#0f172a" font-family="Inter, Arial, sans-serif">edn</text>
<rect x="220" y="355" width="149" height="27" fill="#2563eb" rx="6"/>
<text x="377" y="373.9" font-size="14" fill="#475569" font-family="Inter, Arial, sans-serif">151,291</text>
<text x="210" y="408.9" text-anchor="end" font-size="16" fill="#0f172a" font-family="Inter, Arial, sans-serif">WebAssembly</text>
<rect x="220" y="390" width="142" height="27" fill="#2563eb" rx="6"/>
<text x="370" y="408.9" font-size="14" fill="#475569" font-family="Inter, Arial, sans-serif">144,051</text>
<text x="210" y="443.9" text-anchor="end" font-size="16" fill="#0f172a" font-family="Inter, Arial, sans-serif">Mathematica</text>
<rect x="220" y="425" width="141" height="27" fill="#2563eb" rx="6"/>
<text x="369" y="443.9" font-size="14" fill="#475569" font-family="Inter, Arial, sans-serif">143,284</text>
<text x="220" y="496" font-size="14" fill="#64748b" font-family="Inter, Arial, sans-serif">Source: Hugging Face datasets server stats (partial: True) · Rows analyzed: 9,900,000</text>
</svg>